<svg viewBox="0 0 18 18" fill="currentColor" xmlns="http://www.w3.org/2000/svg">
    <path id="Vector" d="M9 0C4.0275 0 0 4.13206 0 9.22851C0 13.3067 2.5785 16.7651 6.15375 17.9841C6.60375 18.071 6.76875 17.7856 6.76875 17.5403C6.76875 17.3211 6.76125 16.7405 6.7575 15.9715C4.254 16.5283 3.726 14.7333 3.726 14.7333C3.3165 13.6682 2.72475 13.3836 2.72475 13.3836C1.9095 12.8115 2.78775 12.823 2.78775 12.823C3.6915 12.8876 4.16625 13.7735 4.16625 13.7735C4.96875 15.1847 6.273 14.7771 6.7875 14.5411C6.8685 13.9443 7.10025 13.5375 7.3575 13.3067C5.35875 13.076 3.258 12.2824 3.258 8.74632C3.258 7.73887 3.60675 6.916 4.18425 6.27C4.083 6.03698 3.77925 5.09875 4.263 3.82752C4.263 3.82752 5.01675 3.57989 6.738 4.77345C7.458 4.56811 8.223 4.4666 8.988 4.46198C9.753 4.4666 10.518 4.56811 11.238 4.77345C12.948 3.57989 13.7017 3.82752 13.7017 3.82752C14.1855 5.09875 13.8818 6.03698 13.7917 6.27C14.3655 6.916 14.7142 7.73887 14.7142 8.74632C14.7142 12.2916 12.6105 13.0722 10.608 13.299C10.923 13.5759 11.2155 14.1419 11.2155 15.0063C11.2155 16.2414 11.2043 17.2335 11.2043 17.5334C11.2043 17.7756 11.3617 18.064 11.823 17.9718C15.4237 16.7613 18 13.3006 18 9.22851C18 4.13206 13.9703 0 9 0Z" fill="#F7F3F3"/>
</svg>
